<?xml version="1.0" standalone="no"?><!DOCTYPE svg PUBLIC "-//W3C//DTD SVG 1.1//EN" "http://www.w3.org/Graphics/SVG/1.1/DTD/svg11.dtd"><svg t="1599398147636" class="icon" viewBox="0 0 1024 1024" version="1.1" xmlns="http://www.w3.org/2000/svg" p-id="2796" xmlns:xlink="http://www.w3.org/1999/xlink" width="200" height="200"><defs><style type="text/css"></style></defs><path d="M516.5 530.6m-428.9 0a428.9 428.9 0 1 0 857.8 0 428.9 428.9 0 1 0-857.8 0Z" fill="#E61211" p-id="2797"></path><path d="M516.5 530.6m-367.8 0a367.8 367.8 0 1 0 735.6 0 367.8 367.8 0 1 0-735.6 0Z" fill="#FFFFFF" p-id="2798"></path><path d="M516.5 530.6m-324.4 0a324.4 324.4 0 1 0 648.8 0 324.4 324.4 0 1 0-648.8 0Z" fill="#E61211" p-id="2799"></path><path d="M715.6 588.6H574.5v141.1H458.6V588.6H317.5V472.7h141.1V331.6h115.9v141.1h141.1z" fill="#FFFFFF" p-id="2800"></path></svg>